<svg 
 xmlns="http://www.w3.org/2000/svg"
 xmlns:xlink="http://www.w3.org/1999/xlink"
 width="20px" height="23px">
<path fill-rule="evenodd"  fill="rgb(46, 128, 183)"
 d="M7.256,12.470 L12.702,12.470 C13.145,12.470 13.504,12.820 13.504,13.251 C13.504,13.683 13.145,14.033 12.702,14.033 L7.256,14.033 C6.813,14.033 6.455,13.683 6.455,13.251 C6.455,12.820 6.813,12.470 7.256,12.470 ZM15.945,7.782 L7.256,7.782 C6.813,7.782 6.455,7.432 6.455,7.000 C6.455,6.569 6.813,6.219 7.256,6.219 L15.945,6.219 C16.388,6.219 16.748,6.569 16.748,7.000 C16.748,7.432 16.388,7.782 15.945,7.782 ZM15.945,10.907 L7.256,10.907 C6.813,10.907 6.455,10.557 6.455,10.126 C6.455,9.694 6.813,9.345 7.256,9.345 L15.945,9.345 C16.388,9.345 16.748,9.694 16.748,10.126 C16.748,10.557 16.388,10.907 15.945,10.907 ZM19.197,10.626 C18.755,10.626 18.395,10.277 18.395,9.845 L18.395,3.125 C18.395,2.264 17.676,1.563 16.792,1.563 L6.414,1.563 C5.530,1.563 4.811,2.264 4.811,3.125 L4.811,16.751 C4.811,17.169 4.978,17.561 5.281,17.856 C5.583,18.152 5.986,18.314 6.414,18.314 L6.415,18.314 L16.792,18.312 C17.676,18.312 18.395,17.611 18.395,16.750 C18.395,16.318 18.755,15.968 19.197,15.968 C19.640,15.968 19.999,16.318 19.999,16.750 C19.999,18.340 18.772,19.658 17.193,19.850 L17.193,19.874 C17.193,21.598 15.754,23.000 13.985,23.000 L3.207,23.000 C1.438,23.000 -0.000,21.598 -0.000,19.874 L-0.000,6.248 C-0.000,4.525 1.438,3.122 3.207,3.122 C3.209,1.400 4.647,-0.000 6.414,-0.000 L16.792,-0.000 C18.560,-0.000 19.999,1.402 19.999,3.125 L19.999,9.845 C19.999,10.277 19.640,10.626 19.197,10.626 ZM4.147,18.961 C3.541,18.371 3.207,17.586 3.207,16.751 L3.207,4.685 C2.323,4.685 1.603,5.386 1.603,6.248 L1.603,19.874 C1.603,20.736 2.323,21.437 3.207,21.437 L13.985,21.437 C14.869,21.437 15.588,20.736 15.589,19.875 L6.416,19.877 L6.414,19.877 C5.558,19.877 4.753,19.552 4.147,18.961 Z"/>
</svg>