<svg 
 xmlns="http://www.w3.org/2000/svg"
 xmlns:xlink="http://www.w3.org/1999/xlink"
 width="22px" height="27px">
<path fill-rule="evenodd"  fill="rgb(46, 128, 183)"
 d="M20.035,9.343 L20.035,23.915 C20.035,25.616 18.641,27.000 16.928,27.000 L5.071,27.000 C3.358,27.000 1.963,25.616 1.963,23.915 L1.963,9.343 C0.815,8.890 -0.001,7.777 -0.001,6.478 L-0.001,6.319 C-0.001,4.619 1.394,3.235 3.107,3.235 L7.342,3.235 C7.554,1.417 9.112,-0.000 10.999,-0.000 C12.887,-0.000 14.445,1.417 14.657,3.235 L18.891,3.235 C20.605,3.235 22.000,4.619 22.000,6.319 L22.000,6.478 C22.000,7.777 21.183,8.890 20.035,9.343 ZM3.438,23.915 C3.438,24.809 4.170,25.537 5.071,25.537 L16.928,25.537 C17.828,25.537 18.561,24.809 18.561,23.915 L18.561,9.562 L3.438,9.562 L3.438,23.915 ZM10.999,1.463 C9.926,1.463 9.030,2.226 8.832,3.235 L13.168,3.235 C12.969,2.226 12.073,1.463 10.999,1.463 ZM20.525,6.319 C20.525,5.425 19.792,4.697 18.891,4.697 L3.107,4.697 C2.207,4.697 1.473,5.425 1.473,6.319 L1.473,6.478 C1.473,7.372 2.207,8.099 3.107,8.099 L18.891,8.099 C19.792,8.099 20.525,7.372 20.525,6.478 L20.525,6.319 ZM14.951,23.666 C14.543,23.666 14.214,23.339 14.214,22.935 L14.214,14.699 C14.214,14.295 14.543,13.967 14.951,13.967 C15.357,13.967 15.687,14.295 15.687,14.699 L15.687,22.935 C15.687,23.339 15.357,23.666 14.951,23.666 ZM10.999,23.666 C10.592,23.666 10.262,23.339 10.262,22.935 L10.262,14.699 C10.262,14.295 10.592,13.967 10.999,13.967 C11.407,13.967 11.736,14.295 11.736,14.699 L11.736,22.935 C11.736,23.339 11.407,23.666 10.999,23.666 ZM7.048,23.666 C6.641,23.666 6.311,23.339 6.311,22.935 L6.311,14.699 C6.311,14.295 6.641,13.967 7.048,13.967 C7.455,13.967 7.784,14.295 7.784,14.699 L7.784,22.935 C7.784,23.339 7.455,23.666 7.048,23.666 Z"/>
</svg>