<svg 
 xmlns="http://www.w3.org/2000/svg"
 xmlns:xlink="http://www.w3.org/1999/xlink"
 width="24px" height="24px">
<path fill-rule="evenodd"  fill="rgb(46, 128, 183)"
 d="M22.444,1.553 C20.379,-0.519 17.019,-0.519 14.953,1.553 L1.217,15.285 C1.110,15.392 1.044,15.530 1.024,15.679 L0.006,23.217 C-0.025,23.432 0.051,23.647 0.200,23.795 C0.328,23.923 0.507,24.000 0.686,24.000 C0.717,24.000 0.747,24.000 0.778,23.995 L5.319,23.381 C5.697,23.330 5.963,22.982 5.912,22.603 C5.861,22.225 5.513,21.959 5.135,22.010 L1.494,22.501 L2.205,17.244 L7.738,22.778 C7.865,22.905 8.044,22.982 8.224,22.982 C8.402,22.982 8.581,22.910 8.709,22.778 L22.444,9.045 C23.447,8.043 23.999,6.713 23.999,5.296 C23.999,3.880 23.447,2.550 22.444,1.553 ZM15.219,3.240 L17.525,5.547 L4.992,18.082 L2.685,15.776 L15.219,3.240 ZM8.228,21.315 L5.974,19.059 L18.507,6.524 L20.762,8.779 L8.228,21.315 ZM21.724,7.792 L16.206,2.274 C16.907,1.696 17.781,1.379 18.701,1.379 C19.750,1.379 20.731,1.788 21.473,2.524 C22.214,3.261 22.619,4.248 22.619,5.296 C22.619,6.222 22.302,7.091 21.724,7.792 Z"/>
</svg>