<svg 
 xmlns="http://www.w3.org/2000/svg"
 xmlns:xlink="http://www.w3.org/1999/xlink"
 width="25px" height="24px">
<path fill-rule="evenodd"  fill="rgb(46, 128, 183)"
 d="M24.575,23.292 C24.565,23.309 24.562,23.329 24.550,23.345 C24.534,23.365 24.510,23.374 24.492,23.392 C24.147,23.763 23.656,24.000 23.107,24.000 L1.891,24.000 C1.348,24.000 0.861,23.768 0.515,23.403 C0.494,23.382 0.468,23.369 0.449,23.345 C0.437,23.329 0.434,23.309 0.424,23.293 C0.163,22.971 0.000,22.569 0.000,22.125 L0.000,9.211 C0.000,9.042 0.030,8.879 0.074,8.719 C0.080,8.692 0.091,8.668 0.101,8.641 C0.209,8.307 0.400,8.003 0.679,7.771 L2.522,6.249 L2.522,0.625 C2.522,0.280 2.804,-0.000 3.152,-0.000 L21.847,-0.000 C22.194,-0.000 22.477,0.280 22.477,0.625 L22.477,6.250 L24.319,7.771 C24.600,8.004 24.792,8.310 24.900,8.646 C24.908,8.671 24.919,8.693 24.925,8.718 C24.969,8.878 24.999,9.042 24.999,9.211 L24.999,22.125 C24.999,22.568 24.836,22.971 24.575,23.292 ZM22.647,22.750 L13.837,16.562 C13.836,16.561 13.835,16.560 13.833,16.559 L13.537,16.351 C12.914,15.882 12.083,15.884 11.462,16.350 L11.171,16.554 C11.167,16.556 11.164,16.560 11.159,16.562 L2.351,22.750 L22.647,22.750 ZM2.522,7.875 L1.544,8.683 L2.522,9.368 L2.522,7.875 ZM2.941,11.193 C2.835,11.155 2.746,11.090 2.675,11.006 L1.261,10.014 L1.261,21.986 L9.789,15.995 L2.941,11.193 ZM21.216,1.250 L3.783,1.250 L3.783,10.253 L10.902,15.246 C11.885,14.617 13.110,14.616 14.095,15.249 L21.216,10.254 L21.216,1.250 ZM22.477,7.876 L22.477,9.370 L23.455,8.684 L22.477,7.876 ZM23.738,10.016 L22.329,11.003 C22.256,11.094 22.161,11.162 22.048,11.201 L15.210,15.996 L23.738,21.986 L23.738,10.016 ZM13.129,11.125 C13.129,11.470 12.847,11.750 12.499,11.750 C12.151,11.750 11.869,11.470 11.869,11.125 L11.869,8.000 L8.717,8.000 C8.368,8.000 8.086,7.720 8.086,7.375 C8.086,7.030 8.368,6.750 8.717,6.750 L11.869,6.750 L11.869,3.625 C11.869,3.280 12.151,3.000 12.499,3.000 C12.847,3.000 13.129,3.280 13.129,3.625 L13.129,6.750 L16.282,6.750 C16.630,6.750 16.912,7.030 16.912,7.375 C16.912,7.720 16.630,8.000 16.282,8.000 L13.129,8.000 L13.129,11.125 Z"/>
</svg>