<svg 
 xmlns="http://www.w3.org/2000/svg"
 xmlns:xlink="http://www.w3.org/1999/xlink"
 width="29px" height="26px">
<path fill-rule="evenodd"  fill="rgb(255, 255, 255)"
 d="M26.364,25.999 L24.881,22.099 L18.619,22.099 L17.136,25.999 L14.500,25.999 L20.432,10.399 L23.068,10.399 L29.000,25.999 L26.364,25.999 ZM21.750,13.864 L19.608,19.499 L23.892,19.499 L21.750,13.864 ZM12.338,13.695 L12.299,13.734 L15.647,16.997 L14.645,19.643 L10.545,15.599 L3.954,22.099 L2.089,20.260 L8.792,13.727 C7.145,11.920 5.826,9.918 4.864,7.799 L7.500,7.799 C8.304,9.346 9.319,10.809 10.545,12.155 C12.444,10.074 13.834,7.695 14.724,5.186 L-0.000,5.186 L-0.000,2.600 L9.227,2.600 L9.227,-0.000 L11.864,-0.000 L11.864,2.600 L21.091,2.600 L21.091,5.206 L17.229,5.206 C16.266,8.274 14.632,11.173 12.338,13.695 Z"/>
</svg>