<svg 
 xmlns="http://www.w3.org/2000/svg"
 xmlns:xlink="http://www.w3.org/1999/xlink"
 width="23px" height="25px">
<path fill-rule="evenodd"  fill="rgb(46, 128, 183)"
 d="M22.999,23.985 L21.987,25.000 L18.582,21.585 C18.323,21.778 18.044,21.946 17.748,22.084 L17.748,23.296 L-0.001,23.296 L-0.001,-0.000 L12.556,-0.000 L17.748,5.206 L17.748,13.278 C19.399,14.053 20.546,15.735 20.546,17.681 C20.546,18.762 20.192,19.762 19.594,20.570 L22.999,23.985 ZM12.975,2.451 L12.975,4.785 L15.304,4.785 L12.975,2.451 ZM16.316,6.221 L11.544,6.221 L11.544,1.436 L1.431,1.436 L1.431,21.860 L13.231,21.860 C12.279,21.292 11.535,20.405 11.150,19.348 L3.101,19.348 L3.101,17.912 L10.861,17.912 C10.857,17.835 10.855,17.758 10.855,17.681 C10.855,17.090 10.962,16.522 11.155,15.998 L3.101,15.998 L3.101,14.562 L11.989,14.562 C12.878,13.499 14.212,12.822 15.701,12.822 C15.909,12.822 16.115,12.835 16.316,12.861 L16.316,6.221 ZM15.701,14.258 C13.819,14.258 12.287,15.794 12.287,17.681 C12.287,19.569 13.819,21.104 15.701,21.104 C17.583,21.104 19.115,19.569 19.115,17.681 C19.115,15.793 17.583,14.258 15.701,14.258 ZM3.101,11.212 L14.646,11.212 L14.646,12.648 L3.101,12.648 L3.101,11.212 Z"/>
</svg>