<svg 
 xmlns="http://www.w3.org/2000/svg"
 xmlns:xlink="http://www.w3.org/1999/xlink"
 width="26px" height="26px">
<path fill-rule="evenodd"  fill="rgb(255, 255, 255)"
 d="M25.238,26.000 L19.094,26.000 C18.673,26.000 18.332,25.659 18.332,25.238 L18.332,17.570 C18.332,17.149 18.673,16.808 19.094,16.808 L25.238,16.808 C25.659,16.808 26.000,17.149 26.000,17.570 L26.000,25.238 C26.000,25.659 25.659,26.000 25.238,26.000 ZM25.238,15.285 L19.094,15.285 C18.673,15.285 18.332,14.944 18.332,14.523 L18.332,13.000 C18.332,10.899 20.041,9.191 22.141,9.191 C24.241,9.191 26.000,10.899 26.000,13.000 L26.000,14.523 C26.000,14.944 25.659,15.285 25.238,15.285 ZM19.094,6.144 C19.094,4.463 20.460,3.097 22.141,3.097 C23.821,3.097 25.187,4.463 25.187,6.144 C25.187,7.824 23.821,9.191 22.141,9.191 C20.460,9.191 19.094,7.824 19.094,6.144 ZM16.047,26.000 L9.953,26.000 C9.532,26.000 9.191,25.659 9.191,25.238 L9.191,14.523 C9.191,14.102 9.532,13.761 9.953,13.761 L16.047,13.761 C16.468,13.761 16.809,14.102 16.809,14.523 L16.809,25.238 C16.809,25.659 16.468,26.000 16.047,26.000 ZM16.047,12.238 L9.953,12.238 C9.532,12.238 9.191,11.897 9.191,11.476 L9.191,9.953 C9.191,7.852 10.900,6.144 13.000,6.144 C15.100,6.144 16.809,7.852 16.809,9.953 L16.809,11.476 C16.809,11.897 16.468,12.238 16.047,12.238 ZM9.953,3.097 C9.953,1.417 11.320,-0.001 13.000,-0.001 C14.680,-0.001 16.047,1.417 16.047,3.097 C16.047,4.778 14.680,6.144 13.000,6.144 C11.320,6.144 9.953,4.778 9.953,3.097 ZM6.906,26.000 L0.812,26.000 C0.391,26.000 -0.000,25.659 -0.000,25.238 L-0.000,20.616 C-0.000,20.195 0.391,19.855 0.812,19.855 L6.906,19.855 C7.327,19.855 7.668,20.195 7.668,20.616 L7.668,25.238 C7.668,25.659 7.327,26.000 6.906,26.000 ZM6.906,18.331 L0.812,18.331 C0.391,18.331 -0.000,17.991 -0.000,17.570 L-0.000,16.046 C-0.000,13.947 1.759,12.238 3.859,12.238 C5.959,12.238 7.668,13.947 7.668,16.046 L7.668,17.570 C7.668,17.991 7.327,18.331 6.906,18.331 ZM0.812,9.191 C0.812,7.510 2.179,6.144 3.859,6.144 C5.540,6.144 6.906,7.510 6.906,9.191 C6.906,10.871 5.540,12.238 3.859,12.238 C2.179,12.238 0.812,10.871 0.812,9.191 Z"/>
</svg>