<svg 
 xmlns="http://www.w3.org/2000/svg"
 xmlns:xlink="http://www.w3.org/1999/xlink"
 width="27px" height="25px">
<path fill-rule="evenodd"  fill="rgb(255, 255, 255)"
 d="M26.290,1.234 L21.173,20.040 C20.885,21.102 20.643,21.968 20.638,21.966 C20.634,21.964 20.628,21.945 20.628,21.940 C20.627,21.934 19.793,21.589 18.774,21.174 L15.417,19.809 C14.398,19.393 12.723,18.727 11.700,18.331 L11.346,18.192 C10.322,17.794 10.098,16.811 10.850,16.010 L21.241,4.888 C21.992,4.084 21.899,3.982 21.035,4.664 L7.891,15.028 C7.024,15.705 5.475,15.926 4.455,15.521 L1.428,14.325 C0.406,13.919 0.366,13.171 1.341,12.659 L25.043,0.230 C26.017,-0.280 26.578,0.170 26.290,1.234 ZM8.637,18.503 L10.959,19.454 C11.976,19.870 12.319,20.965 11.717,21.888 C11.717,21.888 9.587,25.151 9.649,24.970 C9.709,24.786 7.553,19.593 7.553,19.593 C7.131,18.575 7.619,18.087 8.637,18.503 Z"/>
</svg>