<svg 
 xmlns="http://www.w3.org/2000/svg"
 xmlns:xlink="http://www.w3.org/1999/xlink"
 width="25px" height="25px">
<path fill-rule="evenodd"  fill="rgb(255, 255, 255)"
 d="M23.325,18.775 C22.207,20.690 20.691,22.207 18.775,23.325 C16.860,24.442 14.768,25.001 12.500,25.001 C10.232,25.001 8.140,24.442 6.225,23.325 C4.309,22.206 2.793,20.690 1.675,18.775 C0.557,16.859 -0.002,14.768 -0.002,12.499 C-0.002,10.232 0.557,8.140 1.675,6.224 C2.793,4.309 4.309,2.792 6.225,1.674 C8.140,0.556 10.232,-0.003 12.500,-0.003 C14.769,-0.003 16.860,0.556 18.776,1.674 C20.691,2.792 22.207,4.309 23.325,6.224 C24.443,8.140 25.002,10.231 25.002,12.499 C25.002,14.768 24.443,16.859 23.325,18.775 ZM20.167,8.055 C19.375,6.699 18.301,5.624 16.944,4.832 C15.588,4.040 14.106,3.644 12.500,3.644 C10.894,3.644 9.413,4.040 8.056,4.832 C6.700,5.624 5.625,6.699 4.833,8.055 C4.041,9.412 3.645,10.893 3.645,12.499 C3.645,14.105 4.041,15.587 4.833,16.943 C5.625,18.300 6.700,19.374 8.056,20.166 C9.413,20.958 10.894,21.355 12.500,21.355 C14.106,21.355 15.588,20.958 16.944,20.166 C18.301,19.374 19.375,18.300 20.167,16.943 C20.959,15.587 21.355,14.105 21.355,12.499 C21.355,10.893 20.959,9.412 20.167,8.055 ZM12.875,18.604 C12.755,18.701 12.630,18.750 12.500,18.750 C12.370,18.750 12.245,18.701 12.126,18.604 L6.917,13.395 C6.754,13.221 6.716,13.031 6.803,12.825 C6.890,12.608 7.053,12.499 7.291,12.499 L10.417,12.499 L10.417,6.769 C10.417,6.617 10.466,6.492 10.563,6.395 C10.661,6.297 10.786,6.248 10.938,6.248 L14.063,6.248 C14.215,6.248 14.340,6.297 14.437,6.395 C14.535,6.492 14.584,6.617 14.584,6.769 L14.584,12.499 L17.709,12.499 C17.861,12.499 17.986,12.548 18.084,12.646 C18.182,12.744 18.230,12.869 18.230,13.021 C18.230,13.150 18.176,13.281 18.068,13.411 L12.875,18.604 Z"/>
</svg>