<svg 
 xmlns="http://www.w3.org/2000/svg"
 xmlns:xlink="http://www.w3.org/1999/xlink"
 width="26px" height="26px">
<path fill-rule="evenodd"  fill="rgb(255, 255, 255)"
 d="M24.222,10.353 L18.706,15.868 C17.930,16.644 16.958,17.196 15.894,17.463 L15.846,17.463 L15.595,17.515 L15.456,17.541 L15.157,17.584 L15.010,17.584 C14.897,17.584 14.798,17.607 14.702,17.610 L14.442,17.640 L14.417,17.640 L14.113,17.640 C13.897,17.632 13.681,17.611 13.468,17.581 C13.290,17.550 13.117,17.515 12.943,17.472 L12.688,17.403 C12.597,17.376 12.501,17.346 12.410,17.312 C12.319,17.277 12.224,17.246 12.133,17.207 C12.042,17.168 11.951,17.134 11.860,17.091 C11.215,16.792 10.629,16.381 10.127,15.878 C9.776,15.526 9.593,15.039 9.624,14.542 C9.652,14.125 9.831,13.730 10.127,13.434 C10.811,12.790 11.878,12.790 12.562,13.434 C13.577,14.447 15.222,14.447 16.236,13.434 L17.658,12.021 L17.692,11.982 L21.757,7.922 C22.773,6.907 22.773,5.260 21.757,4.244 C20.741,3.228 19.094,3.228 18.078,4.244 L14.815,7.502 C14.692,7.627 14.505,7.664 14.343,7.597 C13.464,7.238 12.524,7.054 11.574,7.056 L11.414,7.056 C11.237,7.058 11.076,6.955 11.007,6.791 C10.937,6.629 10.973,6.440 11.098,6.315 L15.643,1.774 C18.012,-0.595 21.853,-0.595 24.222,1.774 C26.591,4.142 26.591,7.984 24.222,10.353 ZM14.846,9.313 C15.214,9.547 15.556,9.823 15.864,10.132 C16.215,10.484 16.398,10.971 16.367,11.466 C16.337,11.882 16.158,12.273 15.864,12.567 C15.180,13.211 14.113,13.211 13.429,12.567 C12.414,11.553 10.770,11.553 9.754,12.567 L4.221,18.095 C3.205,19.112 3.205,20.759 4.221,21.775 C5.237,22.790 6.884,22.790 7.900,21.775 L11.171,18.499 C11.295,18.374 11.481,18.336 11.644,18.404 C12.524,18.761 13.466,18.944 14.417,18.941 L14.590,18.941 C14.829,18.939 15.024,19.133 15.026,19.372 C15.027,19.488 14.980,19.600 14.898,19.681 L10.348,24.231 C9.212,25.368 7.670,26.005 6.063,25.999 C2.712,25.996 -0.002,23.279 0.000,19.929 C0.001,18.323 0.639,16.784 1.773,15.648 L7.284,10.132 C8.421,8.992 9.965,8.353 11.574,8.356 C12.734,8.356 13.869,8.688 14.846,9.313 Z"/>
</svg>