<svg 
 xmlns="http://www.w3.org/2000/svg"
 xmlns:xlink="http://www.w3.org/1999/xlink"
 width="25px" height="25px">
<path fill-rule="evenodd"  fill="rgb(255, 255, 255)"
 d="M12.500,-0.001 C5.625,-0.001 -0.000,5.624 -0.000,12.499 C-0.000,19.374 5.625,24.999 12.500,24.999 C19.375,24.999 25.000,19.374 25.000,12.499 C25.000,5.624 19.375,-0.001 12.500,-0.001 ZM21.125,7.499 L17.500,7.499 C17.125,5.874 16.500,4.499 15.750,2.999 C18.000,3.874 20.000,5.374 21.125,7.499 ZM12.500,2.499 C13.500,4.000 14.375,5.624 14.875,7.499 L10.125,7.499 C10.625,5.749 11.500,4.000 12.500,2.499 ZM2.875,15.000 C2.625,14.249 2.500,13.374 2.500,12.499 C2.500,11.624 2.625,10.749 2.875,10.000 L7.125,10.000 C7.000,10.875 7.000,11.624 7.000,12.499 C7.000,13.374 7.125,14.125 7.125,15.000 L2.875,15.000 ZM3.875,17.499 L7.500,17.499 C7.875,19.124 8.500,20.499 9.250,21.999 C7.000,21.124 5.000,19.624 3.875,17.499 ZM7.500,7.499 L3.875,7.499 C5.125,5.374 7.000,3.874 9.250,2.999 C8.500,4.499 7.875,5.874 7.500,7.499 ZM12.500,22.499 C11.500,20.999 10.625,19.374 10.125,17.499 L14.875,17.499 C14.375,19.249 13.500,20.999 12.500,22.499 ZM15.375,15.000 L9.625,15.000 C9.500,14.125 9.375,13.374 9.375,12.499 C9.375,11.624 9.500,10.875 9.625,10.000 L15.500,10.000 C15.625,10.875 15.750,11.624 15.750,12.499 C15.750,13.374 15.500,14.125 15.375,15.000 ZM15.750,21.999 C16.500,20.625 17.125,19.124 17.500,17.499 L21.125,17.499 C20.000,19.624 18.000,21.124 15.750,21.999 ZM18.000,15.000 C18.125,14.125 18.125,13.374 18.125,12.499 C18.125,11.624 18.000,10.875 18.000,10.000 L22.250,10.000 C22.500,10.749 22.625,11.624 22.625,12.499 C22.625,13.374 22.500,14.249 22.250,15.000 L18.000,15.000 Z"/>
</svg>