<svg 
 xmlns="http://www.w3.org/2000/svg"
 xmlns:xlink="http://www.w3.org/1999/xlink"
 width="24px" height="25px">
<path fill-rule="evenodd"  fill="rgb(46, 128, 183)"
 d="M19.443,16.061 C17.978,16.061 16.673,16.746 15.837,17.805 L8.843,13.969 C9.007,13.507 9.098,13.009 9.098,12.495 C9.098,11.975 9.007,11.482 8.838,11.015 L15.826,7.184 C16.656,8.248 17.968,8.939 19.437,8.939 C21.943,8.939 23.988,6.935 23.988,4.469 C23.988,2.004 21.948,-0.000 19.437,-0.000 C16.926,-0.000 14.886,2.004 14.886,4.469 C14.886,4.989 14.975,5.487 15.145,5.949 L8.162,9.780 C7.332,8.710 6.021,8.025 4.551,8.025 C2.045,8.025 -0.001,10.029 -0.001,12.495 C-0.001,14.960 2.045,16.964 4.556,16.964 C6.026,16.964 7.337,16.274 8.172,15.204 L15.160,19.040 C14.991,19.508 14.896,20.011 14.896,20.530 C14.896,22.991 16.937,25.000 19.447,25.000 C21.959,25.000 23.999,22.996 23.999,20.530 C23.999,18.065 21.953,16.061 19.443,16.061 ZM19.443,1.407 C21.166,1.407 22.566,2.782 22.566,4.475 C22.566,6.167 21.166,7.542 19.443,7.542 C17.719,7.542 16.318,6.167 16.318,4.475 C16.318,2.782 17.725,1.407 19.443,1.407 ZM4.556,15.562 C2.833,15.562 1.432,14.187 1.432,12.495 C1.432,10.802 2.833,9.427 4.556,9.427 C6.279,9.427 7.680,10.802 7.680,12.495 C7.680,14.187 6.274,15.562 4.556,15.562 ZM19.443,23.593 C17.719,23.593 16.318,22.217 16.318,20.525 C16.318,18.833 17.719,17.457 19.443,17.457 C21.166,17.457 22.566,18.833 22.566,20.525 C22.566,22.217 21.166,23.593 19.443,23.593 Z"/>
</svg>