<svg 
 xmlns="http://www.w3.org/2000/svg"
 xmlns:xlink="http://www.w3.org/1999/xlink"
 width="24px" height="27px">
<path fill-rule="evenodd"  fill="rgb(255, 255, 255)"
 d="M22.765,2.454 L22.397,2.454 C21.973,7.229 19.170,10.896 16.991,13.500 C19.170,16.103 21.973,19.770 22.396,24.545 L22.764,24.545 C23.444,24.545 23.995,25.094 23.995,25.772 C23.995,26.450 23.444,27.000 22.765,27.000 L21.226,27.000 L2.772,27.000 L1.234,27.000 C0.554,27.000 0.004,26.450 0.004,25.772 C0.004,25.094 0.554,24.544 1.234,24.544 L1.601,24.544 C2.025,19.770 4.828,16.103 7.007,13.500 C4.827,10.897 2.025,7.230 1.602,2.454 L1.234,2.454 C0.554,2.454 0.004,1.904 0.004,1.226 C0.004,0.549 0.554,-0.000 1.234,-0.000 L22.765,-0.000 C23.444,-0.000 23.995,0.549 23.995,1.226 C23.995,1.904 23.444,2.454 22.765,2.454 ZM4.068,2.456 C4.530,6.771 7.343,10.094 9.444,12.577 L9.556,12.709 C9.943,13.166 9.943,13.835 9.556,14.292 L9.444,14.425 C7.342,16.908 4.530,20.231 4.068,24.545 L19.931,24.545 C19.468,20.231 16.656,16.908 14.555,14.425 L14.442,14.292 C14.055,13.834 14.055,13.166 14.442,12.709 L14.554,12.577 C16.655,10.094 19.468,6.771 19.931,2.456 L4.068,2.456 ZM12.614,12.884 C12.614,13.222 12.338,13.497 11.999,13.497 C11.660,13.497 11.384,13.223 11.384,12.884 C11.383,12.166 11.127,11.468 10.662,10.918 C9.630,9.697 8.857,8.373 8.366,6.983 C8.299,6.795 8.328,6.587 8.443,6.425 C8.559,6.262 8.746,6.165 8.946,6.165 L15.052,6.165 C15.251,6.165 15.438,6.262 15.554,6.425 C15.669,6.587 15.698,6.795 15.632,6.983 C15.141,8.373 14.368,9.697 13.335,10.918 C12.870,11.468 12.615,12.166 12.614,12.884 ZM11.384,15.343 C11.384,15.004 11.660,14.730 11.999,14.730 C12.338,14.730 12.614,15.004 12.614,15.343 C12.615,16.229 13.145,17.106 14.108,17.815 C16.166,19.331 17.707,20.978 18.687,22.709 C18.794,22.900 18.792,23.132 18.682,23.320 C18.572,23.509 18.369,23.624 18.151,23.624 L5.848,23.624 C5.629,23.624 5.426,23.509 5.317,23.320 C5.206,23.132 5.204,22.900 5.312,22.709 C6.292,20.978 7.832,19.331 9.891,17.815 C10.853,17.106 11.383,16.229 11.384,15.343 Z"/>
</svg>